<svg width="101" height="101" viewBox="0 0 101 101" fill="none" xmlns="http://www.w3.org/2000/svg">
<path d="M29.4096 100.691L72.2667 100.691C88.0463 100.691 100.838 87.8991 100.838 72.1195L100.838 29.2623C100.838 13.4828 88.0463 0.690918 72.2667 0.690918L29.4096 0.690918C13.63 0.690918 0.838135 13.4828 0.838135 29.2623L0.838135 72.1195C0.838135 87.8991 13.63 100.691 29.4096 100.691Z" fill="#0466DC"/>
<path d="M22.2664 29.2622V34.5479L29.4092 40.3693L43.0521 51.4765C45.2306 53.2622 48.0164 54.2622 50.8378 54.2622C53.6592 54.2622 56.4449 53.2622 58.6235 51.4765L72.2664 40.3336V64.9408H29.4092V49.6194L22.2664 43.7979V63.1551C22.2664 68.0836 26.2664 72.0836 31.1949 72.0836H70.4807C75.4092 72.0836 79.4092 68.0836 79.4092 63.1551V29.2622H22.2664ZM54.1235 45.9408C52.2664 47.4408 49.4092 47.4408 47.5878 45.9408L35.8735 36.4051H65.8378L54.1235 45.9408Z" fill="white"/>
</svg>
